<?xml version="1.0" encoding="UTF-8" standalone="no"?><!DOCTYPE svg PUBLIC "-//W3C//DTD SVG 1.1//EN" "http://www.w3.org/Graphics/SVG/1.1/DTD/svg11.dtd"><svg width="100%" height="100%" viewBox="0 0 254 125" version="1.1" xmlns="http://www.w3.org/2000/svg" xmlns:xlink="http://www.w3.org/1999/xlink" xml:space="preserve" style="fill-rule:evenodd;clip-rule:evenodd;stroke-linejoin:round;stroke-miterlimit:1.41421;"><g><path d="M54.632,38.867l-0.432,0l-26.064,34.992l26.496,0l0,-34.992Zm0,51.84l-42.624,0l0,-18.72l43.776,-58.752l18.288,0l0,60.624l13.392,0l0,16.848l-13.392,0l0,23.328l-19.44,0l0,-23.328Zm156.528,-51.84l-0.432,0l-26.064,34.992l26.496,0l0,-34.992Zm0,51.84l-42.624,0l0,-18.72l43.776,-58.752l18.288,0l0,60.624l13.392,0l0,16.848l-13.392,0l0,23.328l-19.44,0l0,-23.328Z" style="fill:#fff;"/><path d="M100.013,111.175c-0.724,0 -1.309,-0.51 -1.309,-1.14l0,-95.965c0,-0.629 0.585,-1.14 1.309,-1.14l55.396,0c1.012,0 2.295,0.6 2.295,2.105l0,94c0,1.805 -1.571,2.14 -2.295,2.14l-55.396,0Z" style="fill:#fff;fill-opacity:0.501961;"/><path d="M99.677,111.444c-0.537,-0.06 -0.973,-0.55 -0.973,-1.104l0,-97.015c0,-0.55 0.44,-1.042 0.994,-1.099l49.908,-5.19c0.051,-0.007 0.098,109.928 0.098,109.928c0,0.044 -50.027,-5.52 -50.027,-5.52Zm35.96,-45.549c2.172,0 3.934,-1.76 3.934,-3.93c0,-2.172 -1.762,-3.93 -3.934,-3.93c-2.172,0 -3.933,1.758 -3.933,3.93c0,2.17 1.761,3.93 3.933,3.93Z" style="fill:#fff;"/></g></svg>