<?xml version="1.0" encoding="UTF-8" standalone="no"?><!DOCTYPE svg PUBLIC "-//W3C//DTD SVG 1.1//EN" "http://www.w3.org/Graphics/SVG/1.1/DTD/svg11.dtd"><svg width="100%" height="100%" viewBox="0 0 1440 770" version="1.1" xmlns="http://www.w3.org/2000/svg" xmlns:xlink="http://www.w3.org/1999/xlink" xml:space="preserve" style="fill-rule:evenodd;clip-rule:evenodd;stroke-linecap:round;stroke-linejoin:round;stroke-miterlimit:10;"><rect id="画板1" x="0" y="0" width="1440" height="770" style="fill:none;"/><g><rect x="0" y="0" width="1440" height="770" style="fill:#171544;"/><rect x="130" y="62.988" width="1180" height="639.652" style="fill:#171544;"/><path d="M1220.39,443.118l0,-1.856c0,-16.143 -17.225,-29.224 -38.481,-29.224l-157.587,0c-21.256,0 -38.48,-13.081 -38.48,-29.224c0,-16.142 17.224,-29.223 38.48,-29.223l50.086,0c21.256,0 38.481,-13.082 38.481,-29.224l0,-1.856c0,-16.142 -17.225,-29.224 -38.481,-29.224l-144.149,0c-21.256,0 -38.481,-13.081 -38.481,-29.224c0,-16.142 17.225,-29.223 38.481,-29.223l87.955,0c21.256,0 38.481,-13.082 38.481,-29.224l0,-1.856c0,-16.142 -17.225,-29.224 -38.481,-29.224l-638.9,0c-21.256,0 -38.48,13.082 -38.48,29.224l0,1.856c0,16.142 17.224,29.224 38.48,29.224l69.632,0c21.256,0 38.48,13.081 38.48,29.223c0,16.143 -17.224,29.224 -38.48,29.224l-102.615,0c-21.256,0 -38.481,13.082 -38.481,29.224l0,1.856c0,16.142 17.225,29.224 38.481,29.224l149.036,0c21.256,0 38.48,13.081 38.48,29.223c0,16.143 -17.224,29.224 -38.48,29.224l-81.848,0c-21.256,0 -38.48,13.081 -38.48,29.224l0,1.856c0,16.142 17.224,29.224 38.48,29.224l63.524,0c21.256,0 38.48,13.081 38.48,29.223c0,16.143 -17.224,29.224 -38.48,29.224l-81.848,0c-21.256,0 -38.48,13.081 -38.48,29.224l0,1.856c0,16.142 17.224,29.224 38.48,29.224l742.737,0c21.255,0 38.48,-13.082 38.48,-29.224l0,-1.856c0,-16.143 -17.225,-29.224 -38.48,-29.224l-124.604,0c-21.256,0 -38.481,-13.081 -38.481,-29.224c0,-16.142 17.225,-29.223 38.481,-29.223l168.581,0c21.256,0 38.481,-13.082 38.481,-29.224Z" style="fill:#14133b;fill-rule:nonzero;"/><g><path d="M1072.28,79.235l-16.685,-3.05l-128.288,107.229c-4.531,3.971 -4.985,10.873 -1.014,15.404c3.971,4.53 10.873,4.984 15.404,1.013l130.583,-120.596Z" style="fill:url(#_Linear1);"/><path d="M991.434,143.834l-5.764,-0.2l-53.688,43.43c-2.75,2.409 -2.852,5.4 -0.943,7.577c1.908,2.177 5.109,2.722 7.858,0.312l52.537,-51.119Z" style="fill:url(#_Linear2);"/><path d="M937.32,192.73l9.628,-12.09l-13.364,8.601c-0.993,1.266 -1.467,2.875 -0.292,3.951c1.1,1.008 2.935,0.387 4.028,-0.462Z" style="fill:url(#_Linear3);"/></g><path d="M474.968,209.117l-3.679,-2.317l-1.983,-3.344l-1.987,3.373l-3.674,2.288l3.705,1.811l1.956,3.851l1.942,-3.72l3.72,-1.942Z" style="fill:#fff;"/><path d="M1162.83,101.905l-3.678,-2.317l-1.984,-3.345l-1.987,3.373l-3.674,2.289l3.705,1.81l1.956,3.851l1.942,-3.719l3.72,-1.942Z" style="fill:#fff;"/><path d="M1285.95,489.079l-2.688,-1.693l-1.45,-2.444l-1.453,2.465l-2.685,1.672l2.708,1.324l1.43,2.814l1.419,-2.718l2.719,-1.42Z" style="fill:#fff;"/><path d="M566.803,89.129l-4.622,-2.912l-2.492,-4.202l-2.497,4.238l-4.617,2.876l4.656,2.275l2.458,4.839l2.441,-4.673l4.673,-2.441Z" style="fill:#fff;"/><circle cx="647.674" cy="145.102" r="9.462" style="fill:url(#_Linear4);"/><circle cx="981.627" cy="179.936" r="5.399" style="fill:url(#_Linear5);"/><circle cx="384.831" cy="247.386" r="3.492" style="fill:url(#_Linear6);"/><g><path d="M1271.08,629.333c0,-1.397 -1.135,-2.532 -2.532,-2.532l-11.993,0c-1.397,0 -2.531,1.135 -2.531,2.532c0,1.397 1.134,2.532 2.531,2.532l11.993,0c1.397,0 2.532,-1.135 2.532,-2.532Z" style="fill:#2a68f4;"/><path d="M1262.55,637.861c1.397,0 2.531,-1.134 2.531,-2.532l0,-11.993c0,-1.397 -1.134,-2.531 -2.531,-2.531c-1.398,0 -2.532,1.134 -2.532,2.531l0,11.993c0,1.398 1.134,2.532 2.532,2.532Z" style="fill:#2a68f4;"/></g><path d="M416.801,77.817c0.778,-1.409 2.041,-1.409 2.819,0c0.777,1.409 2.575,3.255 4.032,4.033c1.41,0.777 1.41,2.041 0,2.818c-1.409,0.777 -3.255,2.575 -4.032,4.033c-0.778,1.457 -2.041,1.409 -2.819,0c-0.777,-1.409 -2.575,-3.256 -4.032,-4.033c-1.409,-0.777 -1.409,-2.041 0,-2.818c1.457,-0.826 3.255,-2.624 4.032,-4.033Z" style="fill:#da1e66;fill-rule:nonzero;"/><path d="M221.728,500.331c-0.4,-1.6 0.6,-2.4 2.1,-1.9c1.5,0.5 4.1,0.7 5.7,0.3c1.6,-0.4 2.4,0.6 1.9,2.1c-0.5,1.5 -0.7,4.1 -0.3,5.7c0.4,1.6 -0.6,2.4 -2.1,1.9c-1.5,-0.5 -4.1,-0.7 -5.7,-0.3c-1.6,0.4 -2.4,-0.6 -1.9,-2.1c0.5,-1.6 0.7,-4.1 0.3,-5.7Z" style="fill:#f5006f;fill-rule:nonzero;"/><g><path d="M932.799,674.836l0,1.2" style="fill:none;stroke:#ff5f7a;stroke-width:2px;"/><path d="M928.899,676.436l0.9,0.9" style="fill:none;stroke:#ff5f7a;stroke-width:2px;"/><path d="M927.299,680.336l1.2,0" style="fill:none;stroke:#ff5f7a;stroke-width:2px;"/><path d="M928.799,684.236l0.9,-0.8" style="fill:none;stroke:#ff5f7a;stroke-width:2px;"/><path d="M932.699,685.936l0,-1.2" style="fill:none;stroke:#ff5f7a;stroke-width:2px;"/><path d="M936.599,684.336l-0.8,-0.8" style="fill:none;stroke:#ff5f7a;stroke-width:2px;"/><path d="M938.299,680.436l-1.2,0" style="fill:none;stroke:#ff5f7a;stroke-width:2px;"/><path d="M936.699,676.536l-0.8,0.9" style="fill:none;stroke:#ff5f7a;stroke-width:2px;"/></g><g><path d="M757.326,76.465l0,1.2" style="fill:none;stroke:#f46487;stroke-width:2px;"/><path d="M753.326,78.065l0.9,0.9" style="fill:none;stroke:#f46487;stroke-width:2px;"/><path d="M751.726,81.965l1.2,0" style="fill:none;stroke:#f46487;stroke-width:2px;"/><path d="M753.226,85.865l0.9,-0.9" style="fill:none;stroke:#f46487;stroke-width:2px;"/><path d="M757.126,87.565l0,-1.2" style="fill:none;stroke:#f46487;stroke-width:2px;"/><path d="M761.026,85.965l-0.8,-0.8" style="fill:none;stroke:#f46487;stroke-width:2px;"/><path d="M762.726,82.065l-1.2,0" style="fill:none;stroke:#f46487;stroke-width:2px;"/><path d="M761.126,78.165l-0.8,0.9" style="fill:none;stroke:#f46487;stroke-width:2px;"/></g><g><path d="M208.886,364.327l6.3,0" style="fill:none;stroke:#ffc261;stroke-width:2px;"/><path d="M212.086,361.127l0,6.4" style="fill:none;stroke:#ffc261;stroke-width:2px;"/></g><g><path d="M1113.04,160.365l7.76,-0.394" style="fill:none;stroke:#5ab2ff;stroke-width:2.25px;"/><path d="M1116.5,156.466l0.416,7.404" style="fill:none;stroke:#5ab2ff;stroke-width:2.25px;"/></g><g><circle cx="444.085" cy="688.597" r="2.3" style="fill:none;stroke:#ea4c89;stroke-width:6px;"/><g><path d="M1298.07,89.285l0,1.1" style="fill:none;stroke:#ef7dac;stroke-width:4px;"/><path d="M1303.47,94.485l-1.2,0" style="fill:none;stroke:#ef7dac;stroke-width:4px;"/><path d="M1298.27,99.885l0,-1.2" style="fill:none;stroke:#ef7dac;stroke-width:4px;"/><path d="M1292.87,94.585l1.2,0" style="fill:none;stroke:#ef7dac;stroke-width:4px;"/></g><g><path d="M712.286,636.174l-5.6,-3" style="fill:none;stroke:#ff8864;stroke-width:2px;"/><path d="M710.986,631.874l-3,5.6" style="fill:none;stroke:#ff8864;stroke-width:2px;"/></g></g></g><defs><linearGradient id="_Linear1" x1="0" y1="0" x2="1" y2="0" gradientUnits="userSpaceOnUse" gradientTransform="matrix(141.835,-124.319,14.3902,16.4177,926.295,198.818)"><stop offset="0%" style="stop-color:#320662;stop-opacity:1"/><stop offset="30%" style="stop-color:#2b0b61;stop-opacity:1"/><stop offset="60%" style="stop-color:#290d60;stop-opacity:1"/><stop offset="100%" style="stop-color:#300863;stop-opacity:0"/></linearGradient><linearGradient id="_Linear2" x1="0" y1="0" x2="1" y2="0" gradientUnits="userSpaceOnUse" gradientTransform="matrix(60.0318,-52.6181,6.91532,7.88965,930.458,195.375)"><stop offset="0%" style="stop-color:#ffdb00;stop-opacity:1"/><stop offset="30%" style="stop-color:#df3758;stop-opacity:1"/><stop offset="60%" style="stop-color:#d40076;stop-opacity:1"/><stop offset="100%" style="stop-color:#300863;stop-opacity:0"/></linearGradient><linearGradient id="_Linear3" x1="0" y1="0" x2="1" y2="0" gradientUnits="userSpaceOnUse" gradientTransform="matrix(15.7685,-13.8212,3.8061,4.34236,933.165,193.27)"><stop offset="0%" style="stop-color:#f8b813;stop-opacity:1"/><stop offset="49%" style="stop-color:#fdcd4a;stop-opacity:1"/><stop offset="99%" style="stop-color:#ffd45d;stop-opacity:1"/><stop offset="100%" style="stop-color:#300863;stop-opacity:0"/></linearGradient><linearGradient id="_Linear4" x1="0" y1="0" x2="1" y2="0" gradientUnits="userSpaceOnUse" gradientTransform="matrix(-18.9231,-2.7528e-14,2.7528e-14,-18.9231,657.136,145.102)"><stop offset="0%" style="stop-color:#59008b;stop-opacity:1"/><stop offset="100%" style="stop-color:#171544;stop-opacity:1"/></linearGradient><linearGradient id="_Linear5" x1="0" y1="0" x2="1" y2="0" gradientUnits="userSpaceOnUse" gradientTransform="matrix(-10.7983,-1.57087e-14,1.57087e-14,-10.7983,987.026,179.936)"><stop offset="0%" style="stop-color:#59008b;stop-opacity:1"/><stop offset="100%" style="stop-color:#171544;stop-opacity:1"/></linearGradient><linearGradient id="_Linear6" x1="0" y1="0" x2="1" y2="0" gradientUnits="userSpaceOnUse" gradientTransform="matrix(-6.98331,-1.01588e-14,1.01588e-14,-6.98331,388.323,247.386)"><stop offset="0%" style="stop-color:#59008b;stop-opacity:1"/><stop offset="100%" style="stop-color:#171544;stop-opacity:1"/></linearGradient></defs></svg>